<svg width="51" height="51" viewBox="0 0 51 51" fill="none" xmlns="http://www.w3.org/2000/svg">
<path d="M46.1191 50.2856C45.0528 50.2856 43.9864 49.8788 43.1729 49.0643L1.50663 7.39809C-0.121352 5.7701 -0.121352 3.13364 1.50663 1.50654C3.13373 -0.120551 5.77108 -0.121441 7.39818 1.50654L49.0644 43.1728C50.6924 44.8008 50.6924 47.4373 49.0644 49.0643C48.2509 49.8788 47.1854 50.2856 46.1191 50.2856V50.2856Z" fill="white"/>
<path d="M4.45196 50.2858C3.38562 50.2858 2.32018 49.879 1.50663 49.0646C-0.121352 47.4375 -0.121352 44.8001 1.50663 43.173L43.1729 1.50675C44.8009 -0.12123 47.4373 -0.12123 49.0644 1.50675C50.6915 3.13385 50.6924 5.7712 49.0644 7.3983L7.39817 49.0646C6.58463 49.879 5.51829 50.2858 4.45196 50.2858V50.2858Z" fill="white"/>
</svg>
