<svg id="Capa_1" enable-background="new 0 0 497.001 497.001" height="512" viewBox="0 0 497.001 497.001" width="512" xmlns="http://www.w3.org/2000/svg"><g><path d="m158.001 36-155.248 429.456c-7.541 18.498 10.577 37.1 29.215 29.995l428.033-153.451-112.556-174.577z" fill="#ecb880"/><path d="m55.811 486.9-23.84 8.55c-18.64 7.11-36.76-11.5-29.22-29.99l155.25-429.46 21.09 14.63-146.34 404.83c-6.7 16.43 6.87 32.96 23.06 31.44z" fill="#e9a761"/><path d="m427.875 344.532c-2.89-2.896-5.38-6.288-7.336-10.134-57.027-112.152-146.328-201.637-258.25-258.781-19.634-10.025-27.441-34.102-17.437-53.777 10.005-19.675 34.032-27.498 53.667-17.473 62.809 32.069 119.93 73.655 169.775 123.603s91.346 107.186 123.349 170.124c10.004 19.675 2.198 43.752-17.437 53.777-15.796 8.065-34.438 4.577-46.331-7.339z" fill="#e9a761"/><path d="m464.931 355.24c-13.38 3.06-27.43-1.06-37.06-10.71-2.89-2.89-5.38-6.29-7.33-10.13-57.03-112.15-146.33-201.64-258.25-258.78-19.64-10.03-27.44-34.1-17.44-53.78 1.06-2.09 2.28-4.04 3.64-5.85.01 14.55 7.97 28.56 21.8 35.63 111.92 57.14 223.22 160.63 280.25 272.78 1.23 2.42 8.47 18.52 14.39 30.84z" fill="#e69642"/><circle cx="236.001" cy="334" fill="#dc4955" r="54"/><path d="m282.861 360.86c-9.32 16.22-26.82 27.14-46.86 27.14-29.82 0-54-24.18-54-54 0-20.04 10.92-37.54 27.14-46.86-4.54 7.91-7.14 17.08-7.14 26.86 0 29.82 24.18 54 54 54 9.78 0 18.95-2.6 26.86-7.14z" fill="#d82f3c"/><path d="m117.001 388c0 29.82-24.18 54-54 54-18.03 0-33.99-8.83-43.8-22.41l30.05-83.82c4.39-1.16 9-1.77 13.75-1.77 29.82 0 54 24.18 54 54z" fill="#dc4955"/><path d="m194.001 165c0 29.82-24.18 54-54 54-7.2 0-14.06-1.41-20.34-3.96-8.15-3.32-15.3-8.57-20.9-15.18l31.83-88.04c3.05-.54 6.2-.82 9.41-.82 5.7 0 11.19.88 16.35 2.53 21.83 6.92 37.65 27.35 37.65 51.47z" fill="#dc4955"/><path d="m76.081 335.6-36.53 101.05c-8.08-3.89-15.03-9.74-20.26-16.94l30.38-84.04c4.26-1.1 8.73-1.67 13.33-1.67 4.51 0 8.89.55 13.08 1.6z" fill="#d82f3c"/><path d="m156.351 113.53-36.69 101.51c-8.15-3.32-15.3-8.57-20.9-15.18l31.83-88.04c3.05-.54 6.2-.82 9.41-.82 5.7 0 11.19.88 16.35 2.53z" fill="#d82f3c"/><path d="m221.864 198.486c4.532-13.046 18.953-20.402 26.103-23.332 2.376-.974 5.087-.001 6.308 2.258 3.722 6.886 10.41 22.013 5.864 35.101-4.532 13.046-18.953 20.402-26.103 23.332-2.376.974-5.087.001-6.308-2.258-3.722-6.886-10.41-22.013-5.864-35.101z" fill="#b7e546"/><path d="m261.611 204.79c-.14 2.6-.6 5.2-1.47 7.72-4.532 13.046-18.954 20.404-26.103 23.335-2.376.974-5.086.001-6.308-2.257-3.724-6.885-10.416-22.01-5.87-35.098.65-1.88 1.51-3.64 2.53-5.28-.67 12.101 5.502 24.25 8.261 29.025.731 1.266 2.267 1.813 3.635 1.299 5.387-2.024 18.683-7.912 25.325-18.744z" fill="#abd641"/><path d="m308.535 290.543c-8.495-10.725-6.991-26.683-5.638-34.243.452-2.528 2.729-4.293 5.29-4.11 7.76.556 23.95 3.021 32.473 13.781 8.495 10.725 6.991 26.683 5.638 34.243-.452 2.528-2.729 4.293-5.29 4.11-7.76-.557-23.95-3.022-32.473-13.781z" fill="#b7e546"/><path d="m347.231 292.48c-.183 2.832-.48 5.127-.93 7.75-.46 2.52-2.74 4.28-5.29 4.09-10.196-.815-20.954-3.363-28.95-10.12-10.779-9.171-11.419-24.975-9.16-37.9.15-.82.49-1.56.98-2.18-.24 7.77.98 17.26 6.65 24.42 10.98 13.86 34.66 13.96 36.7 13.94z" fill="#abd641"/><path d="m113.145 299.571c-5.211-13.209 1.571-28.7 4.938-35.083.934-1.77 3.024-2.597 4.903-1.908 6.837 2.508 22.637 9.579 27.871 22.848 5.211 13.209-1.571 28.7-4.938 35.083-.934 1.77-3.024 2.597-4.903 1.908-6.837-2.508-22.637-9.579-27.871-22.848z" fill="#b7e546"/><path d="m149.891 311.39c-1.106 3.17-2.432 6.202-3.98 9.13-.93 1.75-2.99 2.57-4.85 1.92-11.115-4.208-23.175-11.244-27.92-22.87-1.5-3.8-2.01-7.79-1.88-11.69.276-8.232 3.137-16.335 6.87-23.48.38-.67.93-1.2 1.56-1.55-2.37 7.26-3.81 16.44-.55 24.72 6.29 15.93 27.8 22.93 30.75 23.82z" fill="#abd641"/></g></svg>